# xmcd CD database file
#
# Track frame offsets:
#	150
#	13988
#	30037
#	39500
#	56113
#	74586
#	87073
#	98647
#	110664
#	122133
#
# Disc length: 1792 seconds
#
# Revision: 2
# Processed by: cddbd v1.5.2PL0 Copyright (c) Steve Scherf et al.
# Submitted via: CDex 1.51
#
DISCID=7f06fe0a
DTITLE=Willie Nelson - Willie Nelson Disc 2
DYEAR=2005
DGENRE=Classic Country
TTITLE0=Heartbreak Hotel (with Leon Russell)
TTITLE1=Reasons to Quit (with Merle Haggard)
TTITLE2=Something to Brag About (Mary Kay Place with Willie Nelson)
TTITLE3=Don't You Ever Get Tired of Hurting Me (with Ray Price)
TTITLE4=Night Life (with Ray Price)
TTITLE5=Half a Man
TTITLE6=Hello Walls (with Faron Young)
TTITLE7=Waltz Across Texas (with Ernest Tubb)
TTITLE8=Just Out of Reach (with Patsy Cline)
TTITLE9=You Nearly Lose Your Mind (with Ernest Tubb and Waylon Jennings)
EXTD=Willie and Friends YEAR: 2005
EXTT0=
EXTT1=
EXTT2=
EXTT3=
EXTT4=
EXTT5=
EXTT6=
EXTT7=
EXTT8=
EXTT9=
PLAYORDER=
